<svg xmlns="http://www.w3.org/2000/svg" xmlns:xlink="http://www.w3.org/1999/xlink" viewBox="0 0 389 229"><g><defs><linearGradient id="idss11096555149_1g1611388455" x1="0.3447660615872234" x2="0.6552339384127766" y1="0" y2="1"><stop offset="0" stop-color="rgb(87, 207, 207)" stop-opacity="1"></stop><stop offset="1" stop-color="rgba(255, 255, 255, 0)" stop-opacity="0"></stop></linearGradient></defs><path d="M 82.632 166.986 C 75.469 167.913 2.892 173.135 2.892 173.135 L 2.895 233.484 L 500.855 235.315 L 498.859 -18.062 C 498.859 -18.062 461.241 -0.012 454.633 1.634 C 448.026 3.281 367.701 13.916 362.381 14.628 C 357.061 15.339 277.368 94.859 263.21 98.403 C 249.052 101.947 181.825 85.479 172.403 88.294 C 162.982 91.108 89.795 166.058 82.632 166.986 Z" fill="url(#idss11096555149_1g1611388455)"></path></g><path d="M 2.892 173.135 C 2.892 173.135 75.472 167.913 82.632 166.986 C 89.792 166.058 162.987 91.106 172.403 88.294 C 181.819 85.481 249.065 101.944 263.21 98.403 C 277.355 94.862 357.062 15.339 362.381 14.628 C 367.699 13.916 448.028 3.28 454.633 1.634 C 461.238 -0.011 498.859 -18.062 498.859 -18.062" fill="transparent" stroke-width="2.98" stroke="rgb(87, 207, 207)" stroke-miterlimit="10" stroke-dasharray=""></path><path d="M 173.5 99.657 C 166.06 99.602 160.011 93.522 159.992 86.079 L 159.992 86.079 C 159.973 78.639 165.989 72.657 173.426 72.718 L 173.426 72.718 C 180.86 72.779 186.902 78.854 186.924 86.289 L 186.924 86.289 C 186.946 93.727 180.937 99.712 173.5 99.657 Z" fill="rgba(255,255,255,0.2)"></path><g><defs><radialGradient id="idss11096555149_4g1064407620" cy="7.354044527675939" cx="11.622577729391596" r="0.5000000000000008" gradientTransform="translate(11.622577729391596, 7.354044527675939) scale(1 1) translate(-11.622577729391596, -7.354044527675939)"><stop offset="0" stop-color="rgb(255,255,255)" stop-opacity="1"></stop><stop offset="1" stop-color="rgb(87, 207, 207)" stop-opacity="1"></stop></radialGradient></defs><path d="M 173.317 94.146 C 169.184 94.115 165.824 90.738 165.813 86.603 L 165.813 86.603 C 165.803 82.47 169.144 79.146 173.276 79.179 L 173.276 79.179 C 177.406 79.212 180.764 82.588 180.776 86.72 L 180.776 86.72 C 180.788 90.852 177.448 94.177 173.317 94.146 Z" fill="url(#idss11096555149_4g1064407620)"></path></g></svg>